<?xml version="1.0" encoding="UTF-8"?>
<svg height="24px" version="1.1" viewbox="0 0 24 24" width="24px" xmlns="http://www.w3.org/2000/svg" xmlns:xlink="http://www.w3.org/1999/xlink">
<title>记录地理位置信息备份</title>
<g fill="none" fill-rule="evenodd" id="记录地理位置信息备份" stroke="none" stroke-width="1">
<path d="M12,0.750708085 C17.1054507,0.750708085 21.25,4.8169108 21.25,9.84006044 C21.25,11.7962976 20.6574499,13.7077772 19.5576286,15.6396698 C18.8729064,16.8424194 18.0501448,17.9748148 16.9608635,19.2678115 L16.9608635,19.2678115 L16.694253,19.5813325 L16.4170134,19.9017301 C16.3227849,20.0097543 16.226719,20.1190427 16.1287501,20.2297138 C15.9102985,20.4764888 15.6650022,20.7357971 15.3927717,21.0078097 L15.3927717,21.0078097 L15.1835472,21.2142039 C15.0406956,21.3533916 14.8911049,21.4957662 14.7347638,21.6413488 L14.7347638,21.6413488 L14.495188,21.8621316 L14.495188,21.8621316 L14.3716004,21.9743327 L14.1168206,22.2023639 C14.0302033,22.2791821 13.941895,22.3568091 13.8518942,22.4352475 L13.8518942,22.4352475 L13.576813,22.6729994 C12.7041229,23.4211848 11.420977,23.4444263 10.509368,22.7218523 L10.509368,22.7218523 L10.4382537,22.6625767 L10.1073598,22.3739979 L9.90321903,22.1942867 L9.61389638,21.9369599 L9.34473731,21.6942012 L9.09562633,21.4658758 L8.86644795,21.2518487 L8.724679,21.117041 L8.59168343,20.9884882 L8.46742704,20.8661504 L8.35187559,20.7499876 L8.24499487,20.6399599 C8.22790207,20.622131 8.21116914,20.604556 8.19479534,20.5872342 L8.19479534,20.5872342 L8.10085655,20.4863341 L7.86894106,20.227554 L7.61273271,19.9370037 C7.57055128,19.8887656 7.5286302,19.8406197 7.48697003,19.7925641 L7.48697003,19.7925641 L7.24014438,19.5052992 L6.99960722,19.2201107 L6.99960722,19.2201107 L6.88170517,19.0782668 L6.65065082,18.7960226 L6.42595171,18.5156276 C4.02623205,15.4877026 2.75,12.7692947 2.75,9.84006044 C2.75,4.85368897 6.70791088,0.831807465 11.7334486,0.751849016 L11.7334486,0.751849016 L11.8799375,0.750708085 L12,0.750708085 Z M12,2.25068438 L11.8859001,2.25068438 L11.751346,2.25173035 C7.55083692,2.31858212 4.25,5.67276956 4.25,9.84006044 C4.25,12.7567734 5.7991974,15.5823717 8.73645395,18.9433602 L8.73645395,18.9433602 L8.98797346,19.2286758 L9.21242661,19.4791868 C9.22500367,19.4929173 9.23793618,19.5069131 9.25122371,19.5211737 L9.25122371,19.5211737 L9.33520518,19.6099105 L9.42768459,19.7049768 L9.52863979,19.8063469 L9.69591626,19.9701656 L9.88213873,20.1480237 L10.0872325,20.3398349 L10.2344088,20.475418 L10.4707886,20.690292 L10.7258404,20.9188884 L10.9994895,21.1611208 L11.4099685,21.5200254 L11.4539143,21.5567115 C11.7903355,21.8232834 12.2735456,21.8145311 12.6005016,21.5342211 L12.6005016,21.5342211 L12.8630218,21.3073481 L13.1154007,21.0855637 C13.1978358,21.0124854 13.2785793,20.9402579 13.3576298,20.8688838 L13.3576298,20.8688838 L13.5897008,20.6573245 L13.8116053,20.4509019 L14.0233349,20.249632 L14.2248812,20.0535308 C14.5195589,19.7632635 14.7798395,19.4904949 15.0055957,19.2354683 C15.0481588,19.1873867 15.0904304,19.1394614 15.1324106,19.0916896 L15.1324106,19.0916896 L15.3807972,18.8068779 C15.4216128,18.7597086 15.4621375,18.712687 15.5023714,18.6658103 L15.5023714,18.6658103 L15.7402879,18.3862653 L15.9712367,18.1100583 C16.1228823,17.9270024 16.2698895,17.7460796 16.4122716,17.5671056 L16.4122716,17.5671056 L16.6223776,17.300083 C18.723223,14.5997434 19.75,12.331153 19.75,9.84006044 C19.75,5.65181302 16.2833634,2.25068438 12,2.25068438 L12,2.25068438 Z M12,7.61026442 C13.2426407,7.61026442 14.25,8.61762373 14.25,9.86026442 C14.25,11.1029051 13.2426407,12.1102644 12,12.1102644 C10.7573593,12.1102644 9.75,11.1029051 9.75,9.86026442 C9.75,8.61762373 10.7573593,7.61026442 12,7.61026442 Z" fill="#000" fill-rule="nonzero" id="path-1"></path>
</g>
</svg>