<svg height="40" version="1.1" viewBox="8 8 24 24" width="40" xmlns="http://www.w3.org/2000/svg">
<g fill="none" fill-rule="evenodd" stroke="none" stroke-width="40">

<g fill="#000" fill-rule="nonzero" transform="translate(9.5 10.442)">
<path d="M18.9507805,9.05799374 L2.04887413,9.057 L2.04957335,8.00108653 C1.91386376,8.12179386 1.73507863,8.19512195 1.53916681,8.19512195 C1.11485048,8.19512195 0.770874129,7.8511456 0.770874129,7.42682927 L0.770874129,4.86585366 C0.770874129,4.44153733 1.11485048,4.09756098 1.53916681,4.09756098 C1.73507863,4.09756098 1.91386376,4.17088906 2.04957335,4.2915964 L2.04878049,3.07317073 C2.04878049,1.3759054 3.42468589,-1.76783033e-11 5.12195122,-1.76783033e-11 L15.8780488,-1.76783033e-11 C17.5753141,-1.76783033e-11 18.9512195,1.3759054 18.9512195,3.07317073 L18.9510402,4.24608116 C19.0782539,4.15270911 19.2352724,4.09756098 19.4051714,4.09756098 C19.8294877,4.09756098 20.1734641,4.44153733 20.1734641,4.86585366 L20.1734641,7.42682927 C20.1734641,7.8511456 19.8294877,8.19512195 19.4051714,8.19512195 C19.2352724,8.19512195 19.0782539,8.13997382 18.9510402,8.04660177 L18.9512195,15.3658537 L18.9507805,9.05799374 Z" fill-opacity=".6"></path>
<path d="M18.9507805,9.05718605 L18.9512195,15.3658537 C18.9512195,16.6891902 18.1147893,17.817168 16.9417642,18.2499517 L16.9418386,19.0595685 C16.9418386,19.7069229 16.4170542,20.2317073 15.7696998,20.2317073 C15.1223454,20.2317073 14.597561,19.7069229 14.597561,19.0595685 L14.5968741,18.439 L6.40187413,18.439 L6.40243902,19.0595685 C6.40243902,19.7069229 5.87765459,20.2317073 5.23030019,20.2317073 C4.58294578,20.2317073 4.05816135,19.7069229 4.05816135,19.0595685 L4.05823575,18.2499517 C2.88521072,17.817168 2.04878049,16.6891902 2.04878049,15.3658537 L2.04878049,9.05718605 L18.9507805,9.05718605 Z M6.65853659,11.0515947 C5.80990392,11.0515947 5.12195122,11.7395474 5.12195122,12.5881801 C5.12195122,13.4368128 5.80990392,14.1247655 6.65853659,14.1247655 C7.50716925,14.1247655 8.19512195,13.4368128 8.19512195,12.5881801 C8.19512195,11.7395474 7.50716925,11.0515947 6.65853659,11.0515947 Z M14.3414634,11.0515947 C13.4928308,11.0515947 12.804878,11.7395474 12.804878,12.5881801 C12.804878,13.4368128 13.4928308,14.1247655 14.3414634,14.1247655 C15.1900961,14.1247655 15.8780488,13.4368128 15.8780488,12.5881801 C15.8780488,11.7395474 15.1900961,11.0515947 14.3414634,11.0515947 Z"></path>
<path d="M5.17328769,1.54328333 L15.7950405,1.54328333 C16.6871928,1.54328333 17.4104251,2.26651566 17.4104251,3.15866795 L17.4104251,9.0564084 L17.4104251,9.0564084 L3.55790307,9.0564084 L3.55790307,3.15866795 C3.55790307,2.26651566 4.2811354,1.54328333 5.17328769,1.54328333 Z" fill-opacity=".6"></path>
</g>
</g>
</svg>
