<svg height="40" version="1.1" viewBox="8 8 24 24" width="40" xmlns="http://www.w3.org/2000/svg">
<g fill="none" fill-rule="evenodd" stroke="none" stroke-width="40">

<g transform="translate(10.5 8.5)">
<path d="M18.235949,0.754605139 C15.9933881,0.754605139 15.2313818,1.07630762 14.4234321,2.50349558 L12.5166131,5.8585173 L12.7745164,6.07927261 L13.0609697,6.3015671 L13.1286859,6.34972021 C13.5283871,6.62740771 13.7340451,6.71584992 13.9083425,6.43859448 L15.719803,3.25185281 C16.2096397,2.37464212 16.4774683,2.2579365 18.235949,2.2579365 C18.6561786,2.25793654 18.982948,1.92809893 18.982948,1.50627083 C18.982948,1.08444274 18.6561787,0.754605139 18.235949,0.754605139 Z" fill="#000" fill-rule="nonzero"></path>
<path d="M16.3970526,5.21148508 L2.59704621,5.21148508 C1.80493326,5.21148508 1.10309666,5.68183388 0.794006696,6.40981575 C0.502623084,7.1240063 0.652160033,7.90193323 1.18754721,8.44234752 L7.23805999,14.3823993 C7.83689458,14.9869082 8.63755782,15.309189 9.48876608,15.309189 C10.3366866,15.309189 11.136758,14.9891101 11.7557613,14.3826715 L17.7697063,8.47948681 C17.7978175,8.46627886 17.852591,8.41478276 17.9036989,8.35128429 L17.9524617,8.28475858 C18.3883799,7.74746172 18.4864293,6.9906312 18.176504,6.34410457 C17.8473581,5.65886657 17.1508698,5.21148508 16.3970526,5.21148508 Z" fill="#000" fill-rule="nonzero"></path>

<path d="M9.50533269,13.9818571 C9.08732942,13.9818571 8.75833368,14.3008334 8.75833368,14.7137202 L8.75833368,21.074313 C8.75833368,21.4871998 9.0873294,21.8061761 9.50533269,21.8061761 C9.90748615,21.8061761 10.2523317,21.4870301 10.2523317,21.0903751 L10.2523317,14.7137202 C10.2523317,14.3008334 9.92333597,13.9818571 9.50533269,13.9818571 Z" fill="#000" fill-rule="nonzero"></path>
<path d="M12.934626,20.7208995 L6.02633949,20.7208995 C5.60610983,20.7208995 5.27934048,21.0507371 5.27934048,21.4725652 C5.27934048,21.8943932 5.60610981,22.2242308 6.02633949,22.2242308 L12.934626,22.2242308 C13.3427847,22.2242308 13.681625,21.8899821 13.681625,21.4725652 C13.681625,21.0507371 13.3548557,20.7208995 12.934626,20.7208995 Z" fill="#000" fill-rule="nonzero"></path>
<path d="M4.35310942,8.26203542 C4.35304515,8.68625134 4.57721946,9.07827078 4.94117301,9.29039747 C5.30512656,9.50252417 5.75355438,9.50252417 6.11750793,9.29039747 C6.48146148,9.07827078 6.70563579,8.68625134 6.70557152,8.26203542 C6.70563579,7.8378195 6.48146148,7.44580006 6.11750793,7.23367336 C5.75355438,7.02154667 5.30512656,7.02154667 4.94117301,7.23367336 C4.57721946,7.44580006 4.35304515,7.8378195 4.35310942,8.26203542 L4.35310942,8.26203542 Z" fill-rule="nonzero"></path>
</g>
</g>
</svg>
