<svg xmlns="http://www.w3.org/2000/svg" width="24" height="24" version="1.1" viewBox="0 0 24 24">
  <g fill="none" fill-rule="evenodd" stroke="none" stroke-width="1">
    <path fill="#000" fill-rule="nonzero" d="M2.24433269,2.18592862 L20.7803301,20.7196699 C21.0732233,21.0125631 21.0732233,21.4874369 20.7803301,21.7803301 C20.4991526,22.0615076 20.0502619,22.0727547 19.7556673,21.8140714 L16.8244049,18.8835716 L16.1176573,19.500101 L16.1176573,19.500101 L14.702026,20.7110339 L13.960879,21.3368085 C12.8429053,22.2775429 11.2097915,22.2760359 10.0935559,21.3332398 L8.13552062,19.6640595 L8.13552062,19.6640595 L7.24049985,18.8854216 L7.24049985,18.8854216 L6.50767513,18.2335919 L6.50767513,18.2335919 L6.20193412,17.9550813 L6.20193412,17.9550813 L5.81899059,17.5964036 L5.29060195,17.0790282 L5.29060195,17.0790282 L4.7094915,16.4913739 C3.87296184,15.6295634 3.19627362,14.8579999 2.70277368,14.2 C0.453134501,11.2004811 0.294949924,7.40857483 2.61580328,4.89815676 L2.72412192,4.785 L1.21966991,3.28033009 C0.926776695,2.98743687 0.926776695,2.51256313 1.21966991,2.21966991 C1.5008474,1.93849242 1.94973814,1.92724532 2.24433269,2.18592862 Z M3.78375262,5.84588069 C1.92893131,7.77854076 2.03565598,10.8105097 3.90277368,13.3 C4.28881315,13.8147193 4.80895929,14.4183899 5.44728288,15.0933491 L5.94793495,15.6126591 L5.94793495,15.6126591 L6.4914102,16.1570464 L6.4914102,16.1570464 L6.93392959,16.5868282 L6.93392959,16.5868282 L7.34792753,16.9706743 L7.34792753,16.9706743 L7.68077204,17.2712473 L7.68077204,17.2712473 L8.48257056,17.979301 L8.48257056,17.979301 L9.73928918,19.0641022 L9.73928918,19.0641022 L11.0614453,20.1872947 C11.582355,20.6272661 12.3283939,20.6572539 12.8799064,20.276973 L12.9949572,20.1892045 L14.2385697,19.1363245 L14.2385697,19.1363245 L15.3019129,18.2221131 L15.3019129,18.2221131 L15.7615897,17.8207333 L15.7615897,17.8207333 L3.78375262,5.84588069 Z M12.971277,3.72027449 C15.5700942,2.13329343 19.0099137,2.46397213 21.2582521,4.7123106 C23.7032996,7.15735809 23.6596196,10.9357407 21.5147954,13.9735828 L21.2782836,14.2947342 C20.658651,15.1058396 19.7710898,16.0824561 18.6577625,17.1824912 L17.5979933,16.1208979 L17.8706173,15.8494763 L17.8706173,15.8494763 L18.3847988,15.3246531 L18.3847988,15.3246531 L18.8563455,14.825194 C19.0812177,14.582073 19.2895561,14.3490653 19.4805421,14.1270738 L19.8391352,13.6980463 C19.9507924,13.5601115 20.0544948,13.4273403 20.15,13.3 C22.0407683,10.7789756 22.1262637,7.70164245 20.197592,5.77297077 C18.4999324,4.07531123 15.9288805,3.78335556 13.9308169,4.89710377 L13.4955903,4.45528599 L13.4955903,4.45528599 L13.0475699,4.00520382 C12.9789659,3.93659986 12.9093438,3.8695609 12.8387502,3.80408714 L12.971277,3.72027449 Z M4.80121371,3.32615527 C6.93667988,2.36752124 9.46835891,2.57535337 11.432027,3.94965165 C11.6717111,4.11838403 11.9029739,4.30312303 12.1235429,4.50486461 L12.2617634,4.63489833 L12.2617634,4.63489833 L12.7243827,5.09769179 L12.7243827,5.09769179 L13.3129649,5.69581264 L13.3129649,5.69581264 L13.6991102,6.0959824 L13.6991102,6.0959824 L14.0304949,6.44663672 L14.0304949,6.44663672 L14.3071512,6.74792182 L14.3071512,6.74792182 C14.5844414,7.05562795 14.5597843,7.52986111 14.2520782,7.80715123 C13.9443721,8.08444136 13.4701389,8.05978431 13.1928488,7.75207818 L12.9243931,7.45991885 L12.9243931,7.45991885 L12.4774459,6.98948596 L12.4774459,6.98948596 L11.9291232,6.42702079 L11.9291232,6.42702079 L11.2798029,5.77297077 L11.2798029,5.77297077 L11.1010067,5.60225587 C9.6731087,4.30083744 7.7008381,3.92867369 5.96159404,4.48576462 L4.80121371,3.32615527 Z"/>
  </g>
</svg>
