<svg xmlns="http://www.w3.org/2000/svg" width="40" height="40" version="1.1" viewBox="8 8 24 24">
  <g fill="none" fill-rule="evenodd" stroke="none" stroke-width="1">
    <g fill="#000" transform="translate(9.5 10.5)">
      <path d="M18,4.11482983 C19.6568542,4.11482983 21,5.45797558 21,7.11482983 L21.0004396,8.87851347 C19.8752403,9.00267466 19,9.95654058 19,11.1148298 C19,12.2731191 19.8752403,13.226985 21.0004396,13.3511462 L21,15.1148298 C21,16.7716841 19.6568542,18.1148298 18,18.1148298 L3,18.1148298 C1.34314575,18.1148298 2.02906125e-16,16.7716841 0,15.1148298 L0.000193286983,13.3510763 C1.12508784,13.2266273 2,12.2729019 2,11.1148298 C2,9.95675774 1.12508784,9.00303234 0.000193286983,8.87858339 L0,7.11482983 C-2.02906125e-16,5.45797558 1.34314575,4.11482983 3,4.11482983 L18,4.11482983 Z M14.75,12.3648298 L6.25,12.3648298 C5.83578644,12.3648298 5.5,12.7006163 5.5,13.1148298 C5.5,13.5290434 5.83578644,13.8648298 6.25,13.8648298 L6.25,13.8648298 L14.75,13.8648298 C15.1642136,13.8648298 15.5,13.5290434 15.5,13.1148298 C15.5,12.7006163 15.1642136,12.3648298 14.75,12.3648298 L14.75,12.3648298 Z M14.75,8.36482983 L6.25,8.36482983 C5.83578644,8.36482983 5.5,8.70061626 5.5,9.11482983 C5.5,9.52904339 5.83578644,9.86482983 6.25,9.86482983 L6.25,9.86482983 L14.75,9.86482983 C15.1642136,9.86482983 15.5,9.52904339 15.5,9.11482983 C15.5,8.70061626 15.1642136,8.36482983 14.75,8.36482983 L14.75,8.36482983 Z"/>
      <path fill-opacity=".6" d="M17.0714979,2 C18.312938,2 19.3342278,2.94257531 19.4587483,4.15110682 L3.61289432,6.2080933 C3.35086455,5.99297079 3.02700815,5.85038975 2.67201833,5.81104336 L2.67149794,4.4 C2.67149794,3.0745166 3.74601454,2 5.07149794,2 L17.0714979,2 Z" transform="rotate(10 11.071 3.036)"/>
    </g>
  </g>
</svg>
