<svg height="40" version="1.1" viewbox="0 0 40 40" width="40" xmlns="http://www.w3.org/2000/svg">
<g fill="#000" fill-rule="evenodd" stroke="none" stroke-width="1" transform="translate(6 9)">
<path d="M22.6060606,10.0454545 C25.7356742,10.0454545 28.2727273,12.5825076 28.2727273,15.7121212 C28.2727273,18.8417348 25.7356742,21.3787879 22.6060606,21.3787879 L15.1027273,21.3784545 L13.1190199,24.0454545 L12.7640874,20.9462331 C10.7140619,20.0932666 9.27272727,18.0710148 9.27272727,15.7121212 C9.27272727,12.5825076 11.8097804,10.0454545 14.9393939,10.0454545 L22.6060606,10.0454545 Z" fill-opacity=".6" style="mix-blend-mode:multiply" transform="matrix(-1 0 0 1 37.545 0)"></path>
<path d="M17.8001154,0.0454545455 C22.4794097,0.0454545455 26.2727273,3.83877209 26.2727273,8.51806641 C26.2727273,13.1973607 22.4794097,16.9906783 17.8001154,16.9906783 L8.74533914,16.9906783 C8.12781408,16.9906783 7.5257192,16.9246139 6.94573668,16.7991672 L3.69243434,20.0454545 L3.72838289,15.3463031 C1.63263481,13.8038923 0.272727273,11.3197911 0.272727273,8.51806641 C0.272727273,3.83877209 4.06604481,0.0454545455 8.74533914,0.0454545455 L17.8001154,0.0454545455 Z" style="mix-blend-mode:multiply"></path>
</g>
</svg>
