<svg height="40" version="1.1" viewBox="8 8 24 24" width="40" xmlns="http://www.w3.org/2000/svg">
<g fill="none" fill-rule="evenodd" stroke="none" stroke-width="40">

<g fill="#000" transform="translate(10 11)">
<rect fill-opacity=".6" height="12.863" width="15.584" x="2.226" y="6.168"></rect>
<path d="M15.6871379,3.27574695e-06 C16.6249621,-0.00157283707 17.4705944,0.565729119 17.8269668,1.43553499 L19.8128511,6.29009078 C19.9949683,6.7214287 20.038029,7.19906634 19.9360068,7.65615814 C19.6773326,8.79154823 18.8034215,9.68434161 17.6761052,9.9648886 C16.5487889,10.2454356 15.3599565,9.86598211 14.601829,8.98363604 C14.0173538,9.64814812 13.1763045,10.0288309 12.2926611,10.0288309 C11.4090177,10.0288309 10.5679684,9.64814812 9.98349321,8.98363604 C9.39901806,9.64814812 8.5579687,10.0288309 7.67432533,10.0288309 C6.79068196,10.0288309 5.9496326,9.64814812 5.36515745,8.98363604 C4.78149266,9.6497961 3.94033053,10.0321469 3.05598957,10.0332697 C1.62628043,10.035863 0.382902636,9.05127663 0.0540713337,7.65615814 C-0.0479508797,7.19906634 -0.00489022181,6.7214287 0.177226954,6.29009078 L2.14001965,1.43553499 C2.49639205,0.565729119 3.34202429,-0.00157283707 4.27984855,3.27574695e-06 L15.6871379,3.27574695e-06 Z M13.1578947,3.15789474 L6.84210526,3.15789474 C6.40609099,3.15789474 6.05263158,3.51135414 6.05263158,3.94736842 C6.05263158,4.3833827 6.40609099,4.73684211 6.84210526,4.73684211 L6.84210526,4.73684211 L13.1578947,4.73684211 C13.593909,4.73684211 13.9473684,4.3833827 13.9473684,3.94736842 C13.9473684,3.51135414 13.593909,3.15789474 13.1578947,3.15789474 L13.1578947,3.15789474 Z" fill-rule="nonzero"></path>
</g>
</g>
</svg>
