<svg xmlns="http://www.w3.org/2000/svg" width="40" height="40" version="1.1" viewBox="8 8 24 24">
  <g fill="none" fill-rule="evenodd" stroke="none" stroke-width="1">
    <g fill="#000" fill-rule="nonzero" transform="translate(11.56 9)">
      <path d="M1.30786199,1.13238479 C1.30786199,1.13238479 1.30786199,1.13238479 1.30786199,1.13238479 C3.90952419,-0.301655975 6.32388553,0.29212587 8.35799062,0.872602432 C10.9700823,1.61802016 13.6310879,1.52064487 16.3410073,0.580476562 C17.1438521,0.339270711 17.5418106,0.878735971 17.5348827,2.19887234 C17.5349716,3.32559957 17.5349716,6.44199625 17.5349716,11.5480624 C17.5349716,11.9408283 17.6371353,12.7771896 16.4916113,13.3828285 C14.3936707,14.448739 12.0679438,14.5654705 9.51443037,13.7330231 C7.03425907,12.9244853 4.42511269,12.893456 1.68699122,13.6399354 C0.531401624,13.9235953 -0.0309287836,13.5273944 3.43100982e-13,12.4513327 L3.43100982e-13,4.93398399 L3.43100765e-13,3.34663999 C1.41442331e-05,2.4254085 0.50107406,1.57708771 1.30786199,1.13238479 Z"/>
      <path fill-opacity=".6" d="M2.08978662,3.94163335 C3.19593033,3.94163335 4.09263698,4.83834 4.09263698,5.94448372 L4.09263698,19.4773048 C4.09263698,20.5834485 3.19593033,21.4801552 2.08978662,21.4801552 C0.983642912,21.4801552 0.0869362617,20.5834485 0.0869362617,19.4773048 L0.0869362617,5.94448372 C0.0869362617,4.83834 0.983642912,3.94163335 2.08978662,3.94163335 Z"/>
    </g>
  </g>
</svg>
